<?xml version="1.0" standalone="no"?>
<!DOCTYPE svg PUBLIC "-//W3C//DTD SVG 20010904//EN"
        "http://www.w3.org/TR/2001/REC-SVG-20010904/DTD/svg10.dtd">
<svg version="1.0" xmlns="http://www.w3.org/2000/svg"
     width="400.000000pt" height="400.000000pt" viewBox="0 0 400.000000 400.000000"
     preserveAspectRatio="xMidYMid meet">

    <g transform="translate(0.000000,400.000000) scale(0.100000,-0.100000)"
       fill="#FF0000" stroke="none">
        <path d="M1834 3505 c-77 -24 -102 -39 -191 -119 -68 -60 -65 -59 -203 -77
-108 -13 -158 -36 -222 -102 l-41 -42 338 -3 c314 -2 339 -1 354 16 46 51 196
142 234 142 9 0 18 4 21 9 3 5 18 11 33 14 16 3 59 12 98 21 122 28 237 18
392 -32 34 -12 76 -28 95 -37 33 -17 33 -17 13 2 -47 44 -178 122 -260 153
-55 21 -139 43 -215 55 -108 18 -389 18 -446 0z"/>
        <path d="M2245 3305 c-112 -28 -221 -77 -283 -126 l-25 -19 129 0 c178 0 313
-26 428 -81 22 -11 43 -19 47 -19 8 0 110 -61 119 -70 3 -3 21 -17 40 -30 41
-29 84 -65 120 -100 206 -206 281 -389 284 -700 0 -88 -4 -161 -11 -185 -70
-233 -93 -295 -137 -360 l-21 -30 30 19 c40 26 206 192 235 236 13 19 27 37
31 40 15 12 91 168 111 229 17 52 22 91 23 181 1 243 -87 465 -264 665 -59 67
-143 145 -191 178 -25 17 -47 33 -50 37 -3 3 -37 23 -77 43 -179 93 -391 129
-538 92z"/>
        <path d="M915 3086 c-55 -15 -115 -76 -115 -117 0 -28 2 -31 23 -24 59 18 67
18 67 -3 0 -15 -11 -23 -46 -33 -28 -9 -54 -24 -65 -41 -19 -26 -26 -86 -11
-103 4 -6 14 -28 21 -50 7 -22 18 -51 24 -65 6 -14 12 -26 12 -27 1 -2 19 6
41 16 86 41 278 38 321 -5 78 -78 -61 -178 -201 -144 -33 8 -75 28 -105 51
-28 22 -53 39 -55 39 -14 0 -30 -78 -31 -145 0 -77 21 -175 37 -175 4 0 8 -6
8 -13 0 -7 5 -18 12 -25 9 -9 18 -4 39 18 62 64 143 80 407 80 154 0 187 3
243 21 106 35 177 98 221 196 27 62 30 208 4 266 l-16 37 59 0 c71 0 119 19
166 64 61 59 71 116 29 165 l-26 31 -276 0 -277 0 -17 -30 c-15 -26 -23 -30
-59 -30 -39 0 -79 26 -79 52 0 12 -308 7 -355 -6z"/>
        <path d="M2081 3063 c10 -21 19 -47 19 -59 0 -15 9 -25 33 -33 119 -44 274
-140 310 -193 9 -13 27 -36 41 -52 14 -16 26 -33 26 -37 0 -4 6 -14 13 -21 56
-60 116 -241 117 -355 1 -172 -117 -397 -314 -598 -94 -95 -153 -188 -192
-297 -17 -49 -29 -176 -20 -221 l7 -35 97 48 c129 64 271 130 278 130 3 0 54
23 113 51 118 57 191 111 242 179 19 25 37 47 41 50 13 10 86 166 106 225 43
129 47 159 47 315 0 145 -11 237 -37 315 -13 39 -70 159 -78 165 -4 3 -13 16
-19 28 -36 68 -172 204 -270 270 -105 71 -178 107 -266 131 -101 27 -126 31
-216 31 l-97 0 19 -37z"/>
        <path d="M2039 2888 l-36 -42 31 -41 c17 -22 34 -42 37 -45 10 -10 46 -95 58
-142 18 -64 10 -267 -13 -333 -21 -63 -97 -219 -108 -223 -4 -2 -8 -9 -8 -16
0 -7 -8 -21 -18 -32 -10 -10 -24 -29 -33 -41 -8 -12 -47 -57 -86 -100 -39 -43
-83 -94 -99 -113 -16 -19 -31 -37 -34 -40 -3 -3 -17 -21 -30 -40 -13 -19 -27
-37 -30 -40 -12 -9 -125 -184 -138 -212 -92 -207 -94 -350 -7 -523 19 -38 51
-88 70 -109 l36 -39 27 34 c31 40 144 153 187 189 58 47 176 129 195 135 18 6
20 15 20 115 0 114 9 161 56 293 4 9 10 17 15 17 5 0 9 5 9 11 0 23 130 191
200 259 9 8 31 35 50 60 19 25 40 51 47 58 7 7 13 17 13 22 0 5 6 15 13 22 30
34 85 147 103 213 17 60 18 209 3 256 -30 94 -82 196 -134 261 -75 93 -237
203 -330 222 -26 5 -34 1 -66 -36z"/>
        <path d="M1894 2793 l-50 -16 0 -96 c1 -145 -23 -200 -139 -316 -51 -52 -173
-145 -189 -145 -16 0 -271 -168 -308 -202 -7 -7 -29 -25 -48 -39 -83 -63 -187
-185 -232 -273 -50 -97 -70 -186 -71 -311 -1 -127 10 -194 52 -310 12 -33 75
-160 82 -165 3 -3 12 -16 19 -29 7 -14 17 -30 21 -35 5 -6 35 -45 67 -86 72
-91 194 -208 282 -270 19 -13 41 -30 48 -37 6 -6 21 -15 32 -18 11 -3 20 -10
20 -15 0 -5 9 -12 20 -15 11 -3 27 -13 35 -22 15 -14 15 -13 8 13 -22 78 -2
216 39 276 l19 27 -50 62 c-55 68 -93 138 -118 220 -21 66 -23 231 -4 309 14
59 109 260 123 260 4 0 8 6 8 13 0 7 8 22 18 33 10 10 28 35 42 54 13 19 27
37 30 40 3 3 17 21 30 40 13 19 27 37 30 40 3 3 35 39 70 80 36 41 73 83 83
95 61 68 150 215 187 310 38 97 48 279 21 365 -20 61 -101 182 -120 179 -3 0
-29 -8 -57 -16z"/>
    </g>
</svg>
